<svg width="29" height="28" viewBox="0 0 29 28" fill="none" xmlns="http://www.w3.org/2000/svg">
<g id="House" clip-path="url(#clip0_3055_718)">
<path id="Vector" d="M24.625 12.6383V22.75C24.625 23.2141 24.4406 23.6593 24.1124 23.9874C23.7842 24.3156 23.3391 24.5 22.875 24.5H18.5C18.0359 24.5 17.5908 24.3156 17.2626 23.9874C16.9344 23.6593 16.75 23.2141 16.75 22.75V18.375C16.75 18.1429 16.6578 17.9204 16.4937 17.7563C16.3296 17.5922 16.1071 17.5 15.875 17.5H12.375C12.1429 17.5 11.9204 17.5922 11.7563 17.7563C11.5922 17.9204 11.5 18.1429 11.5 18.375V22.75C11.5 23.2141 11.3156 23.6593 10.9874 23.9874C10.6592 24.3156 10.2141 24.5 9.75 24.5H5.375C4.91087 24.5 4.46575 24.3156 4.13756 23.9874C3.80937 23.6593 3.625 23.2141 3.625 22.75V12.6383C3.62496 12.3961 3.6752 12.1565 3.77254 11.9347C3.86987 11.7129 4.01219 11.5138 4.19047 11.3498L12.9405 3.09422L12.9525 3.08219C13.2747 2.78921 13.6945 2.62686 14.1299 2.62686C14.5654 2.62686 14.9852 2.78921 15.3073 3.08219C15.3111 3.08647 15.3151 3.09049 15.3194 3.09422L24.0694 11.3498C24.2459 11.5147 24.3864 11.7142 24.482 11.9359C24.5776 12.1577 24.6263 12.3968 24.625 12.6383Z" fill="#191919"/>
</g>
<defs>
<clipPath id="clip0_3055_718">
<rect width="28" height="28" fill="white" transform="translate(0.125)"/>
</clipPath>
</defs>
</svg>
