<svg width="29" height="28" viewBox="0 0 29 28" fill="none" xmlns="http://www.w3.org/2000/svg">
<g id="nut-fill 1" clip-path="url(#clip0_3055_725)">
<path id="Vector" d="M8.64004 1.75C8.33158 1.7501 8.02862 1.83173 7.76186 1.98662C7.49511 2.14151 7.27403 2.36416 7.12104 2.632L1.12204 13.132C0.971029 13.3964 0.891602 13.6955 0.891602 14C0.891602 14.3045 0.971029 14.6036 1.12204 14.868L7.12104 25.368C7.27403 25.6358 7.49511 25.8585 7.76186 26.0134C8.02862 26.1683 8.33158 26.2499 8.64004 26.25H20.61C20.9185 26.2499 21.2215 26.1683 21.4882 26.0134C21.755 25.8585 21.976 25.6358 22.129 25.368L28.1298 14.868C28.2808 14.6036 28.3602 14.3045 28.3602 14C28.3602 13.6955 28.2808 13.3964 28.1298 13.132L22.129 2.632C21.976 2.36416 21.755 2.14151 21.4882 1.98662C21.2215 1.83173 20.9185 1.7501 20.61 1.75H8.64004ZM17.4215 18.718C16.8242 19.0682 16.1636 19.2967 15.4776 19.3905C14.7916 19.4843 14.0938 19.4415 13.4245 19.2645C12.7551 19.0875 12.1273 18.7799 11.5773 18.3594C11.0273 17.9388 10.566 17.4136 10.2198 16.814C9.87359 16.2144 9.64942 15.5522 9.56017 14.8656C9.47093 14.179 9.51838 13.4815 9.69979 12.8134C9.88119 12.1452 10.193 11.5195 10.6172 10.9723C11.0414 10.4251 11.5696 9.96721 12.1715 9.625C13.3767 8.93979 14.804 8.75908 16.1419 9.12232C17.4798 9.48556 18.6198 10.3632 19.313 11.5639C20.0062 12.7645 20.1963 14.1905 19.842 15.5308C19.4876 16.8711 18.6175 18.0169 17.4215 18.718Z" fill="#A5A5A5"/>
</g>
<defs>
<clipPath id="clip0_3055_725">
<rect width="28" height="28" fill="white" transform="translate(0.625)"/>
</clipPath>
</defs>
</svg>
